<svg width="470" height="500" fill="none" xmlns="http://www.w3.org/2000/svg">
  <path d="M468.112 106.033c-2.283-2.284-2.283-4.567-4.567-6.851 0-2.284-2.283-2.284-2.283-4.568s-2.284-4.568-2.284-4.568 0-2.284-2.283-2.284c0-2.284-2.284-4.568-4.567-6.852 0 0 0-2.283-2.283-2.283 0-2.284-2.284-2.284-2.284-4.568s-2.283-2.284-4.567-4.568v-2.284c-2.283 0-4.567-2.284-6.85-4.568h-6.851c-2.283 0-6.85 2.284-9.134 0h-2.283c0-2.283-2.284-2.283-2.284-2.283-2.283 0-2.283-2.284-4.567-2.284-2.283 0-4.566 0-6.85-2.284h-2.283c0 2.284-2.284 2.284-4.567 2.284 0 0-2.284 0-2.284 2.284 0 0-2.283 2.283-2.283 0-2.284-2.284-2.284 0-4.567 0h-2.284c0 2.283 0 2.283-2.283 2.283h-2.284v-2.283l-2.283-2.284c-2.284 0-4.567-2.284-6.851 0h-6.85c-2.284 0-2.284 2.284-2.284 2.284l-2.283 2.283s-2.283 0-2.283-2.283h-2.284c0 2.283-2.283 2.283-2.283 4.567h-2.284c0-2.284-2.283-2.284-4.567-2.284l-2.283-2.283h-4.567l-4.567-4.568c-2.284-2.284-2.284-2.284-4.567 0-2.284 0-2.284 0-2.284 2.284-2.283 2.284-4.567 2.284-4.567 0s0-2.284-2.283-2.284c-2.284 0-4.567 0-6.85 2.284h-2.284c-2.283 0-2.283-2.284-4.567-2.284h-2.283v-9.136h-2.284 2.284c0-2.284 0-2.284-2.284-4.568v-2.283c0-2.284-2.283-2.284-2.283-2.284h-2.284c-2.283 0-2.283 2.284-4.567 2.284 0 0 0 2.283-2.283 0v-6.852s0-2.284-2.284-2.284c0-2.284-2.283-6.852-4.567-4.568-2.283 0-6.85 0-9.134 2.284h-2.283c-2.284 0-2.284-2.284-2.284-4.568s-2.283 0-2.283-2.284h-13.701c-2.283 0-4.567-2.283-4.567 0h-4.567c-2.283 0-2.283 0-4.567-2.283-2.283-2.284-4.567 0-6.85 0-2.284 0-2.284 0-4.567 2.284-2.284 0-2.284 2.283-2.284 2.283s0 2.284-2.283 2.284c0 0-2.283 0-2.283 2.284-11.418-4.568-13.701-4.568-15.985-6.852h-2.283c-2.284 0-4.567 0-4.567-2.283v-4.568c-2.284 0-2.284-2.284-4.567-4.568 0-2.284-2.284-2.284-2.284-2.284h-2.283c0-2.284-2.284-2.284-4.567-4.568h-4.567s-2.283 0-4.567-2.284h-2.283v2.284h2.283c-2.283-2.284-4.567-2.284-6.85-2.284-2.284 0-4.567 2.284-6.851 2.284 0 2.284-2.283 2.284-2.283 2.284h-6.851v11.42c-2.283 4.567-2.283 6.851-2.283 9.135s0 2.284-2.284 4.568c0 2.284 0 6.852-2.283 9.136 0 2.283 0 2.283-2.284 2.283-2.283 0-2.283 2.284-2.283 4.568v2.284l-6.851 6.852-2.283 2.284v6.851c0 2.284-2.283 2.284-4.567 0-2.283-2.284-2.283-2.284-4.567-2.284h-4.567c-2.283 0-2.283 0-4.567 2.284-2.283 0-4.567 0-6.85 2.284-2.284 0-2.284 2.284-4.567 2.284v13.703c0 2.284 2.283 2.284 2.283 4.568v4.568s0 2.284-2.283 2.284c-2.284 0-2.284 2.284-2.284 4.568v2.284c-2.283 2.283-4.567 2.283-2.283 4.567v2.284h-9.134l-2.284 2.284c-2.283 0-4.566 0-6.85 2.284-2.283 2.284-2.283 2.284-2.283 4.568h-2.284c0-2.284-2.283-2.284-2.283-4.568 0 0 0-2.284-2.284-2.284H54.803c-2.283 0-4.567 0-4.567 2.284l-2.283 2.284c-2.284 2.284-2.284 4.568-2.284 4.568l-2.283 2.284c-2.284 0-2.284 2.283-2.284 4.567 0 0 0 2.284-2.283 2.284s-2.283 2.284-4.567 4.568v2.284l-2.283 2.284c-2.284 2.284 0 2.284-2.284 4.568v9.135c0 2.284 2.284 2.284 2.284 4.568-2.284 2.284-2.284 4.568-2.284 4.568 0 2.283-2.283 2.283 0 4.567 0 4.568-2.283 6.852-4.567 9.136v2.284c0 2.284-2.283 2.284-2.283 4.568 0 2.283-2.284 2.283-2.284 4.567-2.283 2.284-4.567 4.568-2.283 6.852v2.284c0 2.284 0 4.568-2.284 4.568 0 0-2.283 0-2.283 2.284h-2.284c0 2.283-2.283 2.283 0 4.567 0 0 0 2.284 2.284 2.284l2.283 2.284v2.284s0 2.284-2.283 2.284c-2.284 2.284 0 4.568 2.283 6.852 2.284 0 2.284 0 4.567 2.283v2.284c0 2.284 0 2.284 2.284 2.284h2.283s2.284 0 2.284 2.284 2.283 2.284 2.283 0h2.284s2.283 0 2.283-2.284h2.284c2.283 2.284 2.283 2.284 0 4.568l-4.567 4.568v9.135c0 2.284-2.284 2.284-2.284 2.284h-2.283c-2.284-2.284-2.284 2.284-4.567 4.568v2.284c-2.284 0-2.284 2.284-2.284 4.568v2.284c0 2.283-2.283 2.283-2.283 4.567 0 2.284-2.284 4.568-2.284 6.852v6.852c0 2.284 0 4.567-2.283 6.851 0 2.284 2.283 2.284 2.283 4.568h-6.85c-2.284 2.284-2.284 4.568-4.567 9.136 0 2.284-2.284 4.567-2.284 6.851v2.284c0 2.284-2.283 4.568-2.283 4.568 0 2.284 0 2.284 2.283 4.568 0 2.284 2.284 4.567 2.284 4.567s0 2.284 2.283 2.284c0 2.284 0 2.284 2.284 4.568v2.284c0 2.284 2.283 4.568 4.567 6.852 0 0 0 2.284 2.283 2.284 0 2.283 0 2.283 2.284 2.283 0 2.284 2.283 2.284 4.567 4.568v2.284c2.283 0 4.567 2.284 6.85 2.284H45.67c0 2.284 0 2.284 2.284 2.284 0 0 2.283 0 4.567 2.284 2.283 0 4.567 0 4.567 2.284 0-2.284 0-2.284 2.283-2.284h4.567s2.284 0 2.284-2.284h6.85-2.283c0 2.284 0 2.284 2.283 2.284 0 2.284 2.284 2.284 2.284 4.568h2.283v2.283c0 2.284 0 2.284 2.284 2.284h2.283c2.284 0 2.284 0 4.567-2.284 2.283 0 2.283 0 4.567-2.283 0 0 2.284 0 2.284 2.283 2.283 2.284 4.566 2.284 4.566 4.568s2.284 4.568 4.567 6.852v2.284c0 2.284 0 2.284 2.284 2.284 2.283 2.284 2.283 4.567 2.283 9.135v9.136c0 2.284-4.567 4.568-2.283 6.851-2.284 2.284 0 4.568 2.283 6.852 0 2.284 0 2.284 2.284 2.284v2.284c0 2.284-2.284 2.284-2.284 4.568-2.283 0-4.567 2.284-6.85 2.284-2.284 0-2.284 2.283-4.567 4.567v2.284s-2.284 2.284 0 2.284c2.283 0 0 2.284 0 2.284 0 2.284 2.283 2.284 0 4.568v9.135c0 2.284 0 4.568 2.283 6.852v2.284c9.134-2.284 11.418-2.284 11.418-2.284h2.283c2.284 0 2.284-2.284 4.567-4.568 0 0 2.284-2.284 2.284 0v2.284c0 2.284-2.284 2.284 0 4.568 0 0 0 2.284 2.283 2.284 0 2.284 2.284 6.851 6.851 6.851 2.283 0 9.133 0 9.133-2.284h2.284c2.283 0 2.283 2.284 4.567 4.568 0 2.284 2.283 0 4.567 2.284l2.283 2.284h2.284s2.283 0 2.283 2.284c2.284 0 6.851 0 9.134-2.284 0 0 2.284 2.284 2.284 0 2.283 0 4.567 2.284 6.85 0h4.567c2.284 0 4.567 0 4.567 2.284 2.283 2.284 6.85 0 9.134 0 2.283 0 2.283 0 4.567-2.284 2.283 0 2.283-2.284 4.567-2.284l2.283-2.284c2.284 0 2.284 0 4.567-2.284 4.567-2.284 6.851-2.284 11.418 0h2.283c2.284 0 4.567 0 6.85 4.568v6.852c2.284 2.284 2.284 4.568 4.567 4.568 0 2.284 2.284 2.283 2.284 2.283h2.283c0 2.284 2.284 2.284 4.567 4.568 2.284 0 2.284 2.284 4.567 0 2.284 0 4.567 2.284 6.851 4.568h2.283l2.284-2.284s-2.284 0-2.284 2.284c2.284 0 4.567 2.284 6.851 0h2.283c2.284 0 4.567-2.284 6.85-2.284 0-2.284 2.284-2.284 2.284-4.568h9.134c2.283 2.284 2.283 0 4.567-2.284 0-2.283 2.283-2.283 2.283-4.567v-9.136c2.284-2.284 2.284-6.852 0-9.135 0-2.284 0-2.284 2.284-4.568 2.283-2.284 2.283-6.852 4.567-9.136 0-2.284 2.283-2.284 2.283-4.567 2.284 0 2.284-2.284 4.567-4.568v-2.284 2.284-2.284c2.284-2.284 4.567-6.852 9.134-9.136 2.284 0 2.284-2.284 2.284-4.567 2.283-2.284 0-2.284 0-4.568 2.283-2.284 2.283-2.284 4.566 0 2.284 2.284 4.567 2.284 6.851 2.284h4.567c2.283 0 4.567 0 4.567-2.284v-2.284c2.283 0 6.85 2.284 9.134-2.284 0-2.284 2.283-2.284 2.283-4.568 2.284 0 2.284-2.284 2.284-2.284v-11.419c0-2.284-2.284-2.284-2.284-4.568v-4.568s0-2.284 2.284-4.567c2.283 0 2.283-2.284 2.283-4.568h13.701c2.283 0 2.283-2.284 2.283-2.284 0-2.284 2.284-2.284 2.284-4.568 0 0 0-2.284 2.283-2.284l2.284-2.284v-2.284c2.283 0 2.283-2.283 2.283-4.567v-2.284l2.284-2.284c2.283 0 0-2.284 2.283-4.568v-4.568h4.567c2.284 0 2.284 2.284 4.567 2.284 2.284-2.284 6.851-2.284 9.134-4.568 4.567-2.283 6.85-6.851 11.417-11.419 2.284-2.284 6.851-4.568 9.134-9.136 2.284 0 2.284-2.283 4.567-2.283l2.284-2.284c2.283-2.284 4.567-4.568 6.85-4.568 4.567-2.284 6.851-6.852 6.851-11.419 0-2.284 2.283-2.284 0-4.568 0-4.568 2.283-6.852 4.567-11.42v-2.284c0-2.283 2.283-4.567 2.283-6.851s2.284-4.568 2.284-4.568c2.283-2.284 2.283-4.568 2.283-6.852v-4.567c0-2.284 2.283-4.568 2.283-6.852 0-2.284 2.284 0 2.284-2.284h2.283c0-2.284 2.284-2.284 0-4.568 0 0 0-2.284-2.283-2.284l-2.284-2.284c0-2.283 0-2.283 2.284-4.567 2.283 0 2.283-2.284 2.283-2.284 2.284-2.284 2.284-6.852-2.283-6.852-2.284 0-4.567 0-4.567-2.284v-2.284c0-2.284 0-2.284-2.283-2.284h-6.851s-2.283 0-2.283-2.283c0-2.284-2.284-2.284-2.284 0-2.283 0-2.283-2.284-4.567 0 0 0-2.283 0-2.283 2.283h-2.284c-2.283-2.283-2.283-2.283 0-4.567 2.284-2.284 2.284-4.568 4.567-4.568v-9.136h-2.283 2.283v-2.284c0-2.283 2.284-2.283 4.567-2.283h2.284c2.283-2.284 4.567-6.852 6.85-9.136v-2.284c2.284-2.284 2.284-2.284 2.284-4.568v-2.284c0-2.283 2.283-4.567 2.283-4.567 0-2.284 2.283-4.568 4.567-6.852v-6.852c0-2.284 2.283-4.567 2.283-6.851s-2.283-2.284-2.283-4.568v-2.284c-4.567-13.703-2.284-13.703 0-13.703h2.283c2.284-2.284 4.567-6.852 6.851-9.136 0-2.284 2.283-4.568 2.283-6.851v-2.284c0-2.284 2.284-4.568 2.284-6.852 0-4.568 0-4.568-2.284-6.852ZM2.283 309.299s0 2.284 0 0c0 2.284 0 0 0 0ZM442.994 76.343c2.284 0 2.284 0 0 0 2.284 0 2.284 0 0 0 2.284 0 2.284 0 0 0Zm-57.087 235.24s0 2.284 0 0c0 2.284 0 0 0 0ZM146.142 450.9s0 2.284 0 0c2.284 2.284 2.284 2.284 0 0 0 2.284 0 0 0 0ZM52.52 122.021s2.283 0 0 0c2.283 0 0 0 0 0Zm376.773-45.678c0 2.284 0 2.284 0 0 0 2.284 0 2.284 0 0Zm0 196.414s0-2.284 0 0Zm-395.04-91.355c0 2.283 0 2.283 0 0 0 2.283 0 0 0 0Zm61.653-54.814c-2.284 0-2.284 0 0 0-2.284 0-2.284 0 0 0Zm61.654 310.609c-2.284 0-2.284 0 0 0ZM422.443 256.77c-2.284-2.284-2.284-2.284 0 0 0-2.284 0-2.284 0 0Zm-61.654-148.453c-2.283 0 0 0 0 0Zm-66.221-11.42c2.284 0 2.284 0 0 0 2.284 0 2.284 0 0 0 2.284 0 2.284 0 0 0Zm63.938 20.556c0-2.284 0-2.284 0 0 0-2.284 0 0 0 0Zm50.236 57.097c-2.284 0-2.284-2.284 0 0-2.284-2.284-2.284-2.284 0 0-2.284-2.284-2.284 0 0 0ZM235.198 428.061c0 2.284 0 2.284 0 0 0 2.284 0 2.284 0 0 0 2.284 0 2.284 0 0Zm180.394-301.473c2.284 0 2.284 0 0 0 2.284 0 2.284 0 0 0 2.284 0 2.284 0 0 0ZM228.347 402.939s0 2.284 0 0c0 2.284 0 2.284 0 0 0 2.284 0 0 0 0Zm34.253 4.567s0-2.283 0 0c0 0 0-2.283 0 0 0-2.283 0-2.283 0 0 0-2.283 0-2.283 0 0ZM61.654 215.66s0 2.284 0 0c0 2.284 0 0 0 0ZM182.678 71.775s-2.283 0 0 0c-2.283 0-2.283 0 0 0Zm-31.969 331.164s2.284 0 0 0c2.284 2.284 2.284 2.284 0 0 0 2.284 0 0 0 0ZM54.803 277.325s0 2.284 0 0c0 2.284 0 0 0 0Zm118.741 116.478c2.284 0 2.284 0 0 0 2.284 2.284 2.284 2.284 0 0 2.284 2.284 2.284 2.284 0 0 2.284 2.284 2.284 0 0 0Zm203.229-114.194c0 2.284 0 0 0 0Zm6.851 2.284s0 2.284 0 0c0 2.284 0 2.284 0 0 0 2.284 0 0 0 0Zm41.102-155.305s0 2.284 0 0c0 2.284 0 2.284 0 0 2.284 2.284 2.284 0 0 0Zm-235.198-70.8s-2.283 0 0 0c-2.283 0-2.283 0 0 0-2.283 0-2.283 0 0 0ZM162.127 69.49s0-2.284 0 0c0-2.284 0-2.284 0 0 0-2.284 0-2.284 0 0Zm212.363 45.68s0 2.284 0 0c0 2.284 0 0 0 0ZM194.095 53.504c0 2.284 0 2.284 0 0 0 2.284 0 2.284 0 0Zm-22.834-20.555s2.283 0 0 0c2.283 0 2.283 0 0 0 2.283 0 0 0 0 0Zm-31.969 356.286-2.284 2.284c2.284 0 2.284-2.284 2.284-2.284Zm11.417 36.543c2.284 0 2.284 0 0 0 2.284 0 0 0 0 0Zm27.402-22.839c0 2.284 0 2.284 0 0 0 2.284 0 2.284 0 0 0 2.284 0 0 0 0Zm180.395-296.906s0 2.284 0 0ZM315.12 85.478c0-2.284 0-2.284 0 0 0-2.284 0-2.284 0 0Zm-79.922-11.42s-2.284 0 0 0c-2.284 0 0 0 0 0Zm-109.607 36.543s2.284 0 0 0Zm-84.488 84.504s0 2.284 0 0c0 2.284-2.284 0 0 0ZM269.45 453.184c0 2.284 0 2.284 0 0 0 2.284 0 2.284 0 0 0 2.284 0 2.284 0 0Zm75.355-93.639c2.283 0 2.283 0 0 0 2.283 0 2.283 0 0 0 2.283 0 2.283 0 0 0Zm73.071-253.512c-2.284 2.284-2.284 0 0 0Zm-34.252-2.284s2.283 0 0 0c2.283 0 0 0 0 0Zm-130.158-59.38c-2.284 0 0 0 0 0Zm-13.701 20.554s-2.284 0 0 0c-2.284 0-2.284 0 0 0-2.284 0 0 0 0 0Zm-43.386-11.42c0-2.283 0-2.283 0 0 0-2.283 0-2.283 0 0 0-2.283 0 0 0 0Zm-18.268 360.855c2.284 0 2.284 0 0 0Zm98.189 9.136c2.284 0 2.284 0 0 0 2.284 0 0 0 0 0Zm-31.968-369.99c2.283 0 2.283 0 0 0 2.283 0 2.283 0 0 0Zm2.283-11.42c0-2.283 0-2.283 0 0 0-2.283 0 0 0 0 0-2.283 0-2.283 0 0 0-2.283 0-2.283 0 0ZM168.977 444.05s0 2.283 0 0c2.284 2.283 2.284 0 0 0Zm38.819 0c2.284 0 2.284 0 0 0Zm205.513-251.228c2.283 0 2.283 0 0 0 2.283 0 2.283 0 0 0 2.283 0 2.283 0 0 0Zm13.701-29.691c2.283 0 2.283 0 0 0 2.283 0 2.283 0 0 0Zm-4.567-68.516s2.283 0 0 0c2.283 0 2.283 0 0 0Zm-31.969-6.852c2.284 0 2.284 0 0 0 2.284 0 0 0 0 0ZM29.685 199.673c0 2.284 0 2.284 0 0Zm11.418 2.284c0 2.283 0 0 0 0ZM25.117 304.732c-2.283 2.283-2.283 2.283 0 0-2.283 2.283-2.283 2.283 0 0-2.283 2.283-2.283 2.283 0 0Zm107.324 84.503c0-2.284-2.284-2.284-4.567-4.567 2.283 2.283 2.283 4.567 4.567 4.567Zm198.662-11.419c0-2.284 0-2.284 0 0 0-2.284 0-2.284 0 0Zm89.055-280.918c-2.283 0-2.283 0 0 0-2.283 0 0 0 0 0Zm-82.205-18.271c2.284 0 0 0 0 0 2.284 0 2.284 0 0 0 2.284 0 2.284 0 0 0ZM216.93 448.616c0 2.284 0 2.284 0 0 0 2.284 0 2.284 0 0 0 2.284 0 2.284 0 0ZM20.551 208.808c0-2.284 0 0 0 0Zm-2.283 102.775c0 2.284 0 2.284 0 0 0 2.284 0 2.284 0 0Zm189.528 141.601s0-2.284 0 0c0-2.284 0-2.284 0 0 0-2.284 0 0 0 0Zm237.482-212.401c-2.284 0-2.284 0 0 0Zm-2.284-89.072c-2.283 0-2.283 0 0 0Zm-84.488-82.22c0-2.284 0-2.284 0 0 0-2.284 0 0 0 0Zm-4.567 0c0-2.284 0-2.284 0 0Zm-230.631 0c0 2.284 0 2.284 0 0 0 2.284 0 2.284 0 0 0 2.284 0 2.284 0 0Zm-34.253 47.962s0 2.284 0 0ZM20.551 215.66c0-2.284 0-2.284 0 0Zm166.694 253.511s0-2.284 0 0c2.283 0 2.283-2.284 0 0Zm258.033-237.524s0 2.284 0 0c0 2.284 0 2.284 0 0 0 2.284 0 0 0 0ZM219.214 28.381s-2.284 0 0 0ZM20.551 320.72s-2.283 2.284 0 0c-2.283 0 0 0 0 0Zm93.623 54.813s0 2.284 0 0c0 2.284 0 2.284 0 0 0 2.284 0 0 0 0Zm89.055 84.504c0 2.284 0 2.284 0 0 0 2.284 0 2.284 0 0 0 2.284 0 2.284 0 0Zm82.205-13.703c0-2.284 0-2.284 0 0 0-2.284 0-2.284 0 0Zm148.426-157.59c0-2.284 0 0 0 0 0-2.284 0-2.284 0 0 0-2.284 0 0 0 0Zm15.985-31.974s-2.284 2.284 0 0c-2.284 2.284 0 0 0 0ZM324.253 51.22s0 2.284 0 0Zm-175.827-9.136c-2.284 0-2.284 0 0 0-2.284 0-2.284 0 0 0ZM31.969 144.86s0-2.283 0 0c0-2.283 0 0 0 0Zm82.205 308.325c0-2.284 0-2.284 0 0 2.283-2.284 2.283 0 0 0 2.283 0 2.283 0 0 0ZM433.86 192.821s2.284 0 0 0Zm15.985-45.678s0 2.284 0 0c0 2.284 0 0 0 0Z" fill="#C7C7C7"/>
</svg>
